<?xml version="1.0" standalone="no"?><!DOCTYPE svg PUBLIC "-//W3C//DTD SVG 1.1//EN" "http://www.w3.org/Graphics/SVG/1.1/DTD/svg11.dtd"><svg t="1723952220179" class="icon" viewBox="0 0 1024 1024" version="1.1" xmlns="http://www.w3.org/2000/svg" p-id="8445" width="256" height="256" xmlns:xlink="http://www.w3.org/1999/xlink"><path d="M229.98 843.23H107.55C82.7 843.23 62 826.67 62 805.97V218.03c0-20.7 20.11-37.26 45.55-37.26h122.44c24.84 0 45.55 16.56 45.55 37.26v587.94c-0.01 20.7-20.72 37.26-45.56 37.26z m0 0" fill="#0DCE9E" p-id="8446"></path><path d="M492.6 843.23H369.57c-24.84 0-45.55-16.56-45.55-37.26V218.03c0-20.7 20.11-37.26 45.55-37.26h122.44c24.84 0 45.55 16.56 45.55 37.26v587.94c0 20.7-20.12 37.26-44.96 37.26z m0 0" fill="#FFCC66" p-id="8447"></path><path d="M86.84 273.04h163.84v75.12H86.84v-75.12z m262.03 0h163.84v75.12H348.87v-75.12z m0 0" fill="#FFFFFF" p-id="8448"></path><path d="M929.12 808.93l-110.61 34.31c-25.43 7.69-52.64-4.73-60.92-27.8L558.85 271.27c-8.28-23.07 5.33-48.5 30.17-56.19l110.61-34.31c25.44-7.69 52.64 4.73 60.92 27.8l198.74 544.17c8.87 23.06-4.74 48.5-30.17 56.19z m0 0" fill="#ED7161" p-id="8449"></path><path d="M780.07 332.78L624.5 380.69l-26.03-71.57 155.56-47.91 26.04 71.57z m0 0" fill="#FFFFFF" p-id="8450"></path></svg>